PathFileType	4	(X/Y/Z)	Kaydara	
DataRate	CameraRate	NumFrames	NumMarkers	Units	OrigDataRate	OrigDataStartFrame	OrigNumFrames	
120.00	120.00	4	72	mm	120.00	202	268	
Frame#	Time	Hips			RightUpLeg			RightLeg			RightFoot			RightFoot_End			LeftUpLeg			LeftLeg			LeftFoot			LeftFoot_End			Spine			Spine1			Spine2			Spine3			Neck			Head			Head_End			RightShoulder			RightArm			RightForeArm			RightHand			RightHandThumb1			RightHandThumb2			RightHandThumb3			RightHandThumb3_End			RightInHandIndex			RightHandIndex1			RightHandIndex2			RightHandIndex3			RightHandIndex3_End			RightInHandMiddle			RightHandMiddle1			RightHandMiddle2			RightHandMiddle3			RightHandMiddle3_End			RightInHandRing			RightHandRing1			RightHandRing2			RightHandRing3			RightHandRing3_End			RightInHandPinky			RightHandPinky1			RightHandPinky2			RightHandPinky3			RightHandPinky3_End			LeftShoulder			LeftArm			LeftForeArm			LeftHand			LeftHandThumb1			LeftHandThumb2			LeftHandThumb3			LeftHandThumb3_End			LeftInHandIndex			LeftHandIndex1			LeftHandIndex2			LeftHandIndex3			LeftHandIndex3_End			LeftInHandMiddle			LeftHandMiddle1			LeftHandMiddle2			LeftHandMiddle3			LeftHandMiddle3_End			LeftInHandRing			LeftHandRing1			LeftHandRing2			LeftHandRing3			LeftHandRing3_End			LeftInHandPinky			LeftHandPinky1			LeftHandPinky2			LeftHandPinky3			LeftHandPinky3_End			
		X1	Y1	Z1	X2	Y2	Z2	X3	Y3	Z3	X4	Y4	Z4	X5	Y5	Z5	X6	Y6	Z6	X7	Y7	Z7	X8	Y8	Z8	X9	Y9	Z9	X10	Y10	Z10	X11	Y11	Z11	X12	Y12	Z12	X13	Y13	Z13	X14	Y14	Z14	X15	Y15	Z15	X16	Y16	Z16	X17	Y17	Z17	X18	Y18	Z18	X19	Y19	Z19	X20	Y20	Z20	X21	Y21	Z21	X22	Y22	Z22	X23	Y23	Z23	X24	Y24	Z24	X25	Y25	Z25	X26	Y26	Z26	X27	Y27	Z27	X28	Y28	Z28	X29	Y29	Z29	X30	Y30	Z30	X31	Y31	Z31	X32	Y32	Z32	X33	Y33	Z33	X34	Y34	Z34	X35	Y35	Z35	X36	Y36	Z36	X37	Y37	Z37	X38	Y38	Z38	X39	Y39	Z39	X40	Y40	Z40	X41	Y41	Z41	X42	Y42	Z42	X43	Y43	Z43	X44	Y44	Z44	X45	Y45	Z45	X46	Y46	Z46	X47	Y47	Z47	X48	Y48	Z48	X49	Y49	Z49	X50	Y50	Z50	X51	Y51	Z51	X52	Y52	Z52	X53	Y53	Z53	X54	Y54	Z54	X55	Y55	Z55	X56	Y56	Z56	X57	Y57	Z57	X58	Y58	Z58	X59	Y59	Z59	X60	Y60	Z60	X61	Y61	Z61	X62	Y62	Z62	X63	Y63	Z63	X64	Y64	Z64	X65	Y65	Z65	X66	Y66	Z66	X67	Y67	Z67	X68	Y68	Z68	X69	Y69	Z69	X70	Y70	Z70	X71	Y71	Z71	X72	Y72	Z72	

202	1.675	5446.805	859.65103	-201.189	5491.310932909485	836.6526103175376	-249.23029157769932	5398.903922235059	434.0770946699135	-266.60015102430225	5518.180192643535	68.37534626476105	-396.24056534540887	5489.990495215496	-26.38562194640775	-249.56235648791332	5409.9821800202235	854.1669209299574	-139.55461571603868	5292.276688850298	462.7778656550957	-51.68104498314123	5222.62851897197	72.7417514621501	77.06608377737973	5289.591606285306	12.082514155179323	243.5148975373651	5410.453207921729	985.4680832519432	-257.69719248392704	5364.291596194288	1059.0316506472002	-300.27268662824537	5311.420629147952	1132.3761482598507	-344.48272998309835	5253.272109625491	1196.0731046161695	-387.1033120266877	5189.671158143149	1263.1199973473997	-429.305589377005	5136.684893434883	1331.32193367501	-395.9817708746497	5108.28617852898	1420.4251209885922	-269.7536597206451	5219.9347399056505	1239.7814709803595	-432.7683612799622	5262.282799249306	1220.2680071651826	-493.7608486583429	5309.560248393386	1033.8744658565736	-461.4418575191788	5354.867078364462	992.3004688214138	-573.0548993353141	5372.123754540096	1008.2661421919172	-587.0026473709396	5373.732445681646	1019.039390322103	-611.115825076567	5373.969934228337	1023.8760349413176	-627.5333321500216	5373.412701170469	1025.6275760897925	-640.8991664498733	5372.144743367036	1000.0410841874584	-586.0164548782426	5388.335564820745	1002.561602854103	-608.4281734385988	5391.043846042818	1005.0289707095243	-628.9489748961394	5387.492336161027	1008.930469794714	-642.9761206602793	5381.021418783232	1013.7567136679738	-655.4426194804706	5368.77330710436	992.7365899986321	-584.4507582995423	5382.744174271628	991.2438197005034	-605.4621835179156	5385.191385304593	992.9651122198113	-627.5813252074246	5380.662803241528	997.2061322229034	-644.3734946188446	5373.46391179922	1002.2603803723226	-657.9503841645229	5366.062579024087	987.4874775984919	-582.7246863388789	5376.4769692723885	981.5223350709417	-599.9163470628541	5378.0677264266815	982.0326789155183	-618.8837193804684	5373.411576317371	985.5977716146331	-634.91554562652	5366.506334460958	990.1009220464902	-647.6027874808384	5361.804713701696	981.5549559783121	-580.4640846659416	5369.020059299598	972.3461028664052	-594.6847135013652	5369.401880885361	971.2365425875521	-609.3120942716982	5365.574174440372	973.1025159850858	-620.7344036291382	5359.208927222218	976.6689109648465	-631.8170640226197	5201.997237411912	1244.645237664954	-397.1187817560559	5171.458192571782	1217.4880367222831	-329.02560083653356	5205.79804015837	1079.2494246208296	-431.3052279316987	5313.842777133231	1008.8628010324443	-436.28154840577923	5307.697887719649	1025.9470848879491	-453.0293244951612	5316.731027481839	1025.4486418263054	-476.5218191891895	5323.344159785968	1022.4075956984742	-492.95516267536203	5329.133093594998	1017.567825145666	-506.71751543265066	5306.737612022803	1019.0045105316974	-454.4690384772755	5303.798785407411	1019.544074098573	-484.09196135048165	5310.045884806548	1013.792915050846	-506.62496800901806	5318.446700446486	1009.007076792147	-519.3284930743387	5328.446909802812	1004.2294248627089	-528.9627740375091	5308.11106249446	1011.3674703790044	-453.7281651173204	5305.985152930483	1007.7646153019706	-482.220189310744	5313.00309388771	1000.471866349768	-506.6167335366145	5323.234892279383	994.2098537367763	-521.8511943489945	5334.223859091834	988.7449598251941	-532.3481746596924	5309.073721745598	1006.0028412311955	-452.4357011919155	5307.762253288416	998.2478764912618	-476.8099439573577	5314.088941460734	990.8571003720627	-497.83362816021304	5324.069762328715	984.2675681054491	-512.4007858580497	5334.454972648743	978.868880450249	-522.2100838375966	5310.919673869048	999.4519992273733	-450.19110431279023	5310.576457707537	988.4508077030332	-471.12881793565373	5315.976313838548	980.952272527375	-487.4824997340329	5323.417775949447	975.3814087243693	-497.87502192455736	5332.710278973173	970.1591108039702	-506.43047218956553
203	1.683	5446.805	859.65103	-201.189	5490.210898702274	835.9517234574827	-250.32384097437424	5399.201953401582	432.68471547803256	-266.37597023303965	5520.034598241569	68.03705192379815	-398.9271420011274	5494.280192333854	-27.094718284025113	-251.44502915010742	5410.99085267183	854.7995461065966	-138.55621852665197	5293.338096055537	463.13601830948784	-51.78055679992829	5223.072979751949	73.04029638478755	76.02286083902378	5289.996763663837	12.0779196772988	242.42463174365355	5410.917810653287	985.8097769196781	-257.2135378629276	5364.8192356041345	1059.5021957411004	-299.6915033089891	5311.994151553374	1132.9778627991348	-343.8300470663757	5253.838298367448	1196.77691636143	-386.4189106021695	5190.116650354061	1263.846554828883	-428.56369763036685	5136.9403280053875	1331.8083351632322	-395.08008103406326	5108.399666856366	1421.0403491744732	-268.8671272521933	5219.941351901793	1239.900443587303	-432.3004585845411	5259.976697290806	1217.582903328259	-493.84540375131365	5301.4624191380135	1030.7069915900756	-457.3196511741558	5339.172100106789	983.3259103767524	-563.7219735937098	5354.883495283894	997.6178924460736	-577.9177628832357	5355.168432864665	1007.5487370043822	-601.3649410519046	5354.543042509121	1011.9066771434597	-617.1850768669265	5353.316923049801	1013.3514879638092	-629.9386442928164	5354.944387398113	989.54920684268	-576.5257761411626	5369.182201397717	990.4848090369628	-597.9833004620496	5370.6903332877755	992.2606655803447	-617.5716287482021	5366.58343940916	995.9931421097992	-631.0545506121136	5359.781496523984	1000.8554640706418	-643.0945372626874	5351.8089066644025	982.6130277258618	-574.6172457233142	5364.0024522585	979.7734822888971	-594.5126161290361	5365.177728812597	980.7944516766497	-615.5717678400174	5359.997172339112	984.8575872156222	-631.6869680294354	5352.444866655389	989.9639684052675	-644.7872672821006	5349.313101807934	977.6607872931074	-572.6749741665012	5358.316494841378	970.7352905158293	-588.6836148863923	5358.839947920986	970.6928466738512	-606.6854211513016	5353.576859735836	974.1169540671747	-622.0421252903235	5346.349718013347	978.683623094857	-634.2707644099581	5345.372266310753	972.1461793196834	-570.1797355656876	5351.482844546044	962.3009166309662	-583.1759240978095	5351.080635691506	960.8428089931551	-596.9702448335745	5346.844390703251	962.6514687676613	-607.8711560375432	5340.2136546815145	966.3003290241284	-618.5309013801908	5203.034812511375	1245.9697238697781	-396.2103559121027	5174.234336258811	1221.363701695691	-326.4042184654029	5204.460236158532	1079.433766213309	-424.7940996977367	5307.110738462554	1001.8641779310342	-430.03314258082656	5300.1573117550315	1017.1007991282521	-445.72726362037895	5308.417247366792	1015.4118238707581	-468.8874067800217	5314.632496934884	1011.616051426495	-485.13107094089594	5320.209992546073	1006.2107119576891	-498.7710294980435	5299.658881854924	1010.1808531572303	-447.14184986484287	5296.57258812897	1008.5293371041789	-475.6096705759625	5302.545607416093	1001.6508887891873	-497.75650278910155	5310.578845099861	996.4918429539243	-510.50480572522673	5320.141804469735	991.6262821892369	-520.3682977132622	5301.411660978207	1002.8412171903196	-446.5746410117832	5299.347144418996	997.2620016798279	-474.0338294900431	5306.116325231527	988.7860012261217	-498.036163606992	5315.928798693738	982.0962081611954	-513.3376924290062	5326.451072459971	976.546055096511	-524.0918133156246	5302.648709760723	997.7386310404509	-445.4301497372512	5301.63814796286	988.428263105516	-468.9949349548033	5307.799317775528	980.0572001447227	-489.70448226511655	5317.402910419539	973.0821452977161	-504.3519770467072	5327.362221521193	967.6161379887758	-514.4104656408934	5304.794460117238	991.5846857438953	-443.4226320901089	5304.920837547172	979.3874905549316	-463.749616156372	5310.266857949094	971.1904178706842	-479.901267635389	5317.471240593898	965.3801662643764	-490.3763418561613	5326.408377269475	960.122298360323	-499.1663204943074
204	1.692	5446.805	859.65103	-201.189	5489.041792299357	835.2605104660472	-251.36996977433404	5399.514601352417	431.29501353579184	-266.18493498523185	5521.741448644759	67.7325613526444	-401.7175524090668	5498.571432297639	-27.82376240746796	-253.51064878408135	5412.060036709519	855.4209739472371	-137.60470025818455	5294.399385013857	463.49848836136664	-51.93642943741024	5223.50033109272	73.38881390903629	75.03600227122207	5290.361254358654	12.152415383054748	241.4048322283198	5411.4240847470155	986.1576139136318	-256.7350824272533	5365.394248432565	1059.9888850380269	-299.1048648595768	5312.617217287152	1133.6058694010746	-343.15806572523474	5254.452683175996	1197.5186957337305	-385.69715965089824	5190.611509322766	1264.6294505949625	-427.758839468791	5137.293901534898	1332.3815101823138	-394.08680428993017	5108.656259350802	1421.7699569730075	-267.89783800530824	5219.967960169845	1240.0797067645733	-431.74267596846573	5257.566094902838	1215.027871108774	-493.6820598171809	5293.46537174863	1027.91896728202	-452.7929519540967	5323.535020657948	975.0068796123627	-553.5685081388938	5337.595035735639	987.6992219403596	-567.8935154237377	5336.558457692021	996.8396575030115	-590.5476790697353	5335.085679165752	1000.7509565200795	-605.6894194964293	5333.215505938525	1001.9122203173034	-617.7695291933276	5337.727999853312	979.7809667740356	-566.1128011971936	5349.986319539246	979.211163433692	-586.4823802041669	5350.31881700512	980.3394893607342	-605.0380150608094	5345.686060053898	983.9212627115352	-617.9148124180812	5338.587158422182	988.8287391573319	-629.4773258117964	5334.86933133637	973.1985201817638	-563.8859588050932	5345.281808037703	969.081867716987	-582.548083547222	5345.217431252263	969.4483094224693	-602.4415455606631	5339.423170234797	973.354608245528	-617.8068522972117	5331.556015725809	978.522541346541	-630.3756545736376	5332.61764058005	968.5309241212074	-561.7483199506582	5340.230993010357	960.6971994308261	-576.4872746025083	5339.720940901962	960.1395276864215	-593.4353116276242	5333.8908361145195	963.4417009464113	-608.0486368758501	5326.379480784435	968.0801518226232	-619.7680349269934	5329.031005696408	963.4170142111225	-559.0455854241386	5334.077769607369	952.9729131372503	-570.7548502141003	5332.927340574939	951.1924313653249	-583.6519818625823	5328.31590638017	952.9557854081938	-593.984852814345	5321.455500099302	956.693344189393	-604.1786355454421	5204.147973304133	1247.3301674737972	-395.2853761728914	5177.219026118077	1225.3020737045608	-323.92957229020226	5203.438594716515	1079.867235984587	-418.14640725848295	5300.490726414608	995.4043091304846	-423.4725772888229	5292.815771460807	1008.830041277553	-437.9738759042192	5300.301489871647	1005.9628211434936	-460.69923717215397	5306.112185183737	1001.4211899772693	-476.6952208437043	5311.4675770609965	995.4579398992289	-490.17583682959696	5292.774253958491	1001.940505067702	-439.3968351650456	5289.607113249594	998.1528892490504	-466.60409552634536	5295.3071691846835	990.1678189239531	-488.29948538956813	5302.948378917657	984.634237989452	-501.05377016615273	5312.036890419163	979.6701072001995	-511.1155630566657	5294.885665809667	994.8963684890268	-439.0436065775784	5292.9363400076	987.3933929464768	-465.3889030772091	5299.454975908196	977.7562414304939	-488.9314786110182	5308.817185096117	970.63684952652	-504.25599118678116	5318.831363904438	964.9896666516415	-515.2347545305024	5296.381216094644	990.0532681988768	-438.0782458602512	5295.707251308717	979.2329783871958	-460.78793061067967	5301.698187798883	969.9003447558341	-481.1321337970444	5310.89303090832	962.5377230233835	-495.82058945443345	5320.386719441643	956.993191075907	-506.0992033151077	5298.803106536946	984.2901700938455	-436.34690222900986	5299.418704047974	970.9356176389647	-456.045306388305	5304.702025362665	962.0539420763604	-471.9633656344652	5311.643875649871	956.0023023733816	-482.4968385769015	5320.189041120875	950.6986456530487	-491.49822728573275
205	1.7	5446.805	859.65103	-201.189	5487.808689374031	834.5829342664757	-252.36150224476404	5399.837813653883	429.9170187074742	-266.0304208793988	5523.287411662869	67.46568779785284	-404.5970448644313	5502.835686514884	-28.56809994598884	-255.75460627489403	5413.185225941415	856.0278409888436	-136.7063092640034	5295.455697953694	463.8639743173413	-52.14607476508318	5223.9092915543715	73.78505781768737	74.11141252445182	5290.685269571889	12.30476165084415	240.46104063622835	5411.969243042869	986.508729480187	-256.2663210034265	5366.013515336924	1060.4880027540771	-298.518060296248	5313.28649686236	1134.2557152844713	-342.4725839797206	5255.111986868566	1198.2935241127577	-384.9439558150362	5191.153557877021	1265.4642112982006	-426.89703949640995	5137.744232086593	1333.0386690658936	-393.0090452274457	5109.056513945198	1422.6103712242632	-266.8525614999626	5220.014634003927	1240.318593608092	-431.0987912205295	5255.06452573277	1212.6222132154046	-493.2682881200057	5285.624752127778	1025.5363056984518	-447.8866399021176	5308.068192152717	967.4183732625395	-542.6564612522149	5320.381857556427	978.6010945675198	-556.9867894710858	5318.03794225097	987.0110144709126	-578.7233217434773	5315.741269166593	990.5120456746133	-593.1087067087283	5313.258279185792	991.4155201157419	-604.4579147140684	5320.618971534309	970.8252154685083	-554.8385881305742	5330.88698697668	968.8432815482671	-573.9918159265519	5330.079231790631	969.3739441404684	-591.4201689132769	5324.955903187775	972.8248688646963	-603.6319417135985	5317.598221106301	977.786413810064	-614.6681665568419	5318.07657448134	964.5780256623135	-552.3216519055829	5326.718769912179	959.2652545107914	-569.6405524308442	5325.458643545094	959.0288244627586	-588.2692432257036	5319.095796828242	962.8009163018161	-602.8155792040146	5310.956802782892	968.0395111752598	-614.8004359935394	5316.096802870925	960.1797770422884	-550.0119438298693	5322.352898939454	951.4975264725838	-563.4031234512545	5320.853007428696	950.4667010301479	-579.2154284469395	5314.502274004304	953.6672020393105	-593.0210793167823	5306.748503392468	958.3852580796884	-604.1830280374346	5312.899476062298	955.4451577161656	-547.1316142528938	5316.93296502112	944.4442668479828	-557.5010109029396	5315.07756456811	942.3702397922617	-569.4425204511404	5310.128783438722	944.1007150188151	-579.1639365486686	5303.078039294291	947.9325487815811	-588.8510563419868	5205.33106108872	1248.7179002180503	-394.35163477540505	5180.397416838469	1229.2782434999444	-321.6235891136052	5202.745321185105	1080.55179581082	-411.40549194822	5294.029594638265	989.5392919199155	-416.64557809815926	5285.728260680731	1001.207201227674	-429.8211842514407	5292.444098004845	997.1833138651349	-452.00938806892907	5297.845920005267	991.9103455496393	-467.6995037271836	5302.969329458285	985.4008587403548	-480.98348134138826	5286.134490082646	994.355148999491	-431.28646456970387	5282.954255941612	988.5040773039208	-457.1342605682512	5288.383564970809	979.441485489054	-478.3138991201975	5295.610181336228	973.5344604671599	-491.03366298140224	5304.18941699954	968.4611951261346	-501.2598806198675	5288.580080564224	987.6015898985962	-431.1865220127203	5286.798815891262	978.2430528359698	-456.3427177348777	5293.065822918953	967.4755928468327	-479.36087358385083	5301.9488626282	959.9274807367761	-494.6621502391055	5311.416021231793	954.1714957928566	-505.8297754403001	5290.315548343541	983.0128733494096	-430.4306053578838	5290.010664669056	970.7400221015201	-452.24416075040835	5295.826755089252	960.471658276161	-472.1724138594092	5304.583019343833	952.7217637595063	-486.86030297138944	5313.573562658341	947.0873760067954	-497.3268470639043	5292.986874409956	977.630833574874	-429.01308058451815	5294.106460112403	963.1662915132274	-448.06851685883777	5299.317521411668	953.6188276459922	-463.7216144629858	5305.972243563672	947.3251061458744	-474.2876239280937	5314.0905654489725	941.965100343652	-483.4744515601863
